<svg width="16" height="16" viewBox="0 0 16 16" fill="none" xmlns="http://www.w3.org/2000/svg">
<g id="Frame 49" clip-path="url(#clip0_265_57)">
<g id="Group 92">
<g id="Group 90">
<g id="bot 1">
<path id="Vector (Stroke)" d="M8.16367 2.21012V0.973272H6.92682C6.72345 0.973272 6.55859 0.808411 6.55859 0.605044C6.55859 0.401678 6.72345 0.236816 6.92682 0.236816H8.5319C8.73527 0.236816 8.90013 0.401678 8.90013 0.605044V2.21012C8.90013 2.41349 8.73527 2.57835 8.5319 2.57835C8.32854 2.57834 8.16367 2.41348 8.16367 2.21012Z" fill="currentColor"/>
<path id="Vector (Stroke)_2" d="M11.3735 3.01283C11.3735 2.77297 11.1791 2.57851 10.9392 2.5785H6.12392C5.88405 2.5785 5.68958 2.77296 5.68958 3.01283V6.22299C5.68958 6.46286 5.88405 6.65733 6.12392 6.65733H10.9392C11.1791 6.65731 11.3735 6.46285 11.3735 6.22299V3.01283ZM12.1099 6.22299C12.1099 6.86958 11.5858 7.39377 10.9392 7.39378H6.12392C5.47732 7.39378 4.95312 6.86959 4.95312 6.22299V3.01283C4.95312 2.36623 5.47732 1.84204 6.12392 1.84204H10.9392C11.5858 1.84206 12.1099 2.36624 12.1099 3.01283V6.22299Z" fill="currentColor"/>
<path id="Vector (Stroke)_3" d="M5.31923 4.24951C5.52259 4.24952 5.68746 4.41438 5.68746 4.61774C5.68746 4.8211 5.52259 4.98596 5.31923 4.98597H4.51667C4.3133 4.98597 4.14844 4.82111 4.14844 4.61774C4.14844 4.41437 4.3133 4.24951 4.51667 4.24951H5.31923Z" fill="currentColor"/>
<path id="Vector (Stroke)_4" d="M12.5419 4.24951C12.7452 4.24952 12.9101 4.41438 12.9101 4.61774C12.9101 4.8211 12.7452 4.98596 12.5419 4.98597H11.7393C11.536 4.98597 11.3711 4.82111 11.3711 4.61774C11.3711 4.41437 11.536 4.24951 11.7393 4.24951H12.5419Z" fill="currentColor"/>
<path id="Vector (Stroke)_5" d="M9.36719 5.01918V4.21662C9.36719 4.01325 9.53205 3.84839 9.73542 3.84839C9.93878 3.84839 10.1036 4.01325 10.1036 4.21662V5.01918C10.1036 5.22254 9.93878 5.38741 9.73542 5.38741C9.53205 5.38741 9.3672 5.22254 9.36719 5.01918Z" fill="currentColor"/>
<path id="Vector (Stroke)_6" d="M6.95703 5.01918V4.21662C6.95703 4.01325 7.12189 3.84839 7.32526 3.84839C7.52863 3.84839 7.69349 4.01325 7.69349 4.21662V5.01918C7.69348 5.22254 7.52862 5.38741 7.32526 5.38741C7.1219 5.38741 6.95704 5.22254 6.95703 5.01918Z" fill="currentColor"/>
</g>
<g id="git-graph 1">
<path id="Vector (Stroke)_7" d="M6.16785 9.71924C6.16785 9.32883 5.85134 9.01233 5.46094 9.01232C5.07053 9.01232 4.75402 9.32883 4.75402 9.71924C4.75403 10.1096 5.07053 10.4262 5.46094 10.4262C5.85134 10.4261 6.16784 10.1096 6.16785 9.71924ZM6.84766 9.71924C6.84765 10.4851 6.22678 11.1059 5.46094 11.106C4.69508 11.106 4.07423 10.4851 4.07422 9.71924C4.07422 8.95338 4.69508 8.33252 5.46094 8.33252C6.22679 8.33253 6.84766 8.95339 6.84766 9.71924Z" fill="currentColor"/>
<path id="Vector (Stroke)_8" d="M5.12109 12.8598V10.7662C5.12109 10.5784 5.27327 10.4263 5.461 10.4263C5.64872 10.4263 5.8009 10.5784 5.8009 10.7662V12.8598C5.80089 13.0475 5.64871 13.1997 5.461 13.1997C5.27328 13.1997 5.12111 13.0475 5.12109 12.8598Z" fill="currentColor"/>
<path id="Vector (Stroke)_9" d="M6.16785 13.9065C6.16785 13.5161 5.85134 13.1996 5.46094 13.1996C5.07053 13.1996 4.75402 13.5161 4.75402 13.9065C4.75403 14.2969 5.07053 14.6134 5.46094 14.6134C5.85134 14.6134 6.16784 14.2969 6.16785 13.9065ZM6.84766 13.9065C6.84765 14.6723 6.22678 15.2932 5.46094 15.2932C4.69508 15.2932 4.07423 14.6723 4.07422 13.9065C4.07422 13.1406 4.69508 12.5198 5.46094 12.5198C6.22679 12.5198 6.84766 13.1406 6.84766 13.9065Z" fill="currentColor"/>
<path id="Vector (Stroke)_10" d="M7.5625 14.9533V8.67242C7.5625 8.4847 7.71468 8.33252 7.9024 8.33252C8.09013 8.33252 8.24231 8.4847 8.24231 8.67242V14.9533C8.2423 15.141 8.09012 15.2932 7.9024 15.2932C7.71468 15.2932 7.56251 15.141 7.5625 14.9533Z" fill="currentColor"/>
<path id="Vector (Stroke)_11" d="M11.0507 9.71924C11.0507 9.32883 10.7342 9.01233 10.3437 9.01232C9.95334 9.01232 9.63684 9.32883 9.63684 9.71924C9.63684 10.1096 9.95334 10.4262 10.3437 10.4262C10.7341 10.4261 11.0507 10.1096 11.0507 9.71924ZM11.7305 9.71924C11.7305 10.4851 11.1096 11.1059 10.3437 11.106C9.5779 11.106 8.95704 10.4851 8.95703 9.71924C8.95703 8.95338 9.57789 8.33252 10.3437 8.33252C11.1096 8.33253 11.7305 8.95339 11.7305 9.71924Z" fill="currentColor"/>
<path id="Vector (Stroke)_12" d="M10.344 10.4263C10.5317 10.4264 10.6838 10.5788 10.6836 10.7665C10.6832 11.2556 10.5796 11.7392 10.3798 12.1856C10.1799 12.632 9.8881 13.0313 9.52352 13.3574C9.38361 13.4825 9.16875 13.4706 9.0436 13.3307C8.91845 13.1907 8.9304 12.9758 9.07032 12.8507C9.36369 12.5883 9.59846 12.267 9.75931 11.9078C9.92015 11.5485 10.0035 11.1594 10.0038 10.7658C10.004 10.5781 10.1563 10.4261 10.344 10.4263Z" fill="currentColor"/>
<path id="$" d="M11.4161 14.5566C11.4161 14.5217 11.4107 14.491 11.4 14.4645C11.39 14.4371 11.3738 14.4122 11.3514 14.3898C11.3282 14.3674 11.2979 14.347 11.2605 14.3288C11.224 14.3097 11.1796 14.291 11.1274 14.2728C11.0435 14.2429 10.9672 14.2114 10.8983 14.1782C10.8294 14.145 10.7709 14.1064 10.7228 14.0624C10.6739 14.0184 10.6361 13.9674 10.6095 13.9093C10.583 13.8504 10.5697 13.7807 10.5697 13.7002C10.5697 13.6296 10.5817 13.5653 10.6058 13.5072C10.6299 13.4483 10.6639 13.3973 10.7079 13.3541C10.7519 13.311 10.805 13.2761 10.8672 13.2496C10.9294 13.223 10.9987 13.206 11.0751 13.1985V12.9309H11.2742V13.201C11.3489 13.211 11.4161 13.2313 11.4759 13.262C11.5356 13.2927 11.5867 13.3326 11.629 13.3815C11.6705 13.4313 11.7024 13.4898 11.7248 13.557C11.7481 13.6234 11.7597 13.6981 11.7597 13.7811H11.4137C11.4137 13.728 11.407 13.6815 11.3937 13.6417C11.3805 13.6018 11.3618 13.5691 11.3377 13.5433C11.3161 13.5209 11.29 13.5039 11.2593 13.4923C11.2294 13.4807 11.1962 13.4749 11.1597 13.4749C11.1174 13.4749 11.0805 13.4807 11.0489 13.4923C11.0182 13.5031 10.9929 13.5184 10.973 13.5384C10.9531 13.5591 10.9382 13.5832 10.9282 13.6105C10.9191 13.6379 10.9145 13.6678 10.9145 13.7002C10.9145 13.7325 10.9191 13.7616 10.9282 13.7873C10.9382 13.8122 10.9548 13.8354 10.978 13.857C11.0004 13.8786 11.0303 13.8993 11.0676 13.9192C11.105 13.9383 11.1514 13.9578 11.207 13.9778C11.2908 14.0093 11.3668 14.0421 11.4348 14.0761C11.5029 14.1093 11.5614 14.1479 11.6103 14.1919C11.6585 14.2367 11.6954 14.2885 11.7211 14.3474C11.7477 14.4055 11.7609 14.4744 11.7609 14.5541C11.7609 14.6271 11.7489 14.6931 11.7248 14.752C11.7008 14.8101 11.6663 14.8603 11.6215 14.9026C11.5767 14.9449 11.5228 14.979 11.4597 15.0047C11.3966 15.0296 11.3261 15.0458 11.2481 15.0532V15.2972H11.0502V15.0532C10.9796 15.0466 10.9112 15.0312 10.8448 15.0072C10.7784 14.9823 10.7199 14.9466 10.6693 14.9001C10.6178 14.8536 10.5768 14.7951 10.5461 14.7246C10.5154 14.6532 10.5 14.5678 10.5 14.4682H10.8473C10.8473 14.5279 10.856 14.5781 10.8734 14.6188C10.8909 14.6586 10.9137 14.6902 10.9419 14.7134C10.9693 14.7375 11.0008 14.7545 11.0365 14.7644C11.0722 14.7744 11.1087 14.7794 11.146 14.7794C11.1933 14.7794 11.2344 14.7736 11.2693 14.762C11.3041 14.7495 11.3327 14.7325 11.3552 14.7109C11.3751 14.6918 11.39 14.669 11.4 14.6425C11.4107 14.6159 11.4161 14.5873 11.4161 14.5566Z" fill="#F509C6"/>
</g>
</g>
</g>
</g>
<defs>
<clipPath id="clip0_265_57">
<rect width="16" height="16" fill="currentColor"/>
</clipPath>
</defs>
</svg>
